HIERARCHY
ROOT Pelvis
{
	OFFSET 0.000000 0.000000 0.000000
	CHANNELS 6 Xposition Yposition Zposition Xrotation Yrotation Zrotation
	JOINT LeftUpLeg_virtual
	{
		OFFSET 0.000000 0.000000 0.000000
		CHANNELS 3 Xrotation Yrotation Zrotation
		JOINT LeftUpLeg
		{
			OFFSET 18.735201 -5.666702 -4.541200
			CHANNELS 3 Xrotation Yrotation Zrotation
			JOINT LeftLeg
			{
				OFFSET -0.021200 -31.938179 0.493100
				CHANNELS 3 Xrotation Yrotation Zrotation
				JOINT LeftFoot
				{
					OFFSET 0.021200 -31.938179 -4.336299
					CHANNELS 3 Xrotation Yrotation Zrotation
					JOINT LeftToeBase
					{
						OFFSET 0.943001 -26.722000 15.023500
						CHANNELS 3 Xrotation Yrotation Zrotation
						End Site
						{
							OFFSET 0 0 0
						}
					}
				}
			}
		}
	}
	JOINT RightUpLeg_virtual
	{
		OFFSET 0.000000 0.000000 0.000000
		CHANNELS 3 Xrotation Yrotation Zrotation
		JOINT RightUpLeg
		{
			OFFSET -18.735201 -5.666702 -4.541200
			CHANNELS 3 Xrotation Yrotation Zrotation
			JOINT RightLeg
			{
				OFFSET 0.018946 -31.938133 0.493100
				CHANNELS 3 Xrotation Yrotation Zrotation
				JOINT RightFoot
				{
					OFFSET -0.018946 -31.938126 -4.336299
					CHANNELS 3 Xrotation Yrotation Zrotation
					JOINT RightToeBase
					{
						OFFSET -0.943001 -26.722004 15.023500
						CHANNELS 3 Xrotation Yrotation Zrotation
						End Site
						{
							OFFSET 0 0 0
						}
					}
				}
			}
		}
	}
	JOINT Hips_virtual
	{
		OFFSET 0.000000 0.000000 0.000000
		CHANNELS 3 Xrotation Yrotation Zrotation
		JOINT Hips
		{
			OFFSET -0.000000 -0.000000 -0.000000
			CHANNELS 3 Xrotation Yrotation Zrotation
			JOINT Spine
			{
				OFFSET 0.000000 10.199997 -0.299500
				CHANNELS 3 Xrotation Yrotation Zrotation
				JOINT Spine1
				{
					OFFSET 0.000000 11.900002 -1.516600
					CHANNELS 3 Xrotation Yrotation Zrotation
					JOINT Spine2
					{
						OFFSET 0.000000 13.600006 -2.842500
						CHANNELS 3 Xrotation Yrotation Zrotation
						JOINT Neck_virtual
						{
							OFFSET 0.000000 0.000000 0.000000
							CHANNELS 3 Xrotation Yrotation Zrotation
							JOINT Neck
							{
								OFFSET 0.000000 9.624100 -2.890100
								CHANNELS 3 Xrotation Yrotation Zrotation
								JOINT Head
								{
									OFFSET 0.000000 14.068802 -1.351900
									CHANNELS 3 Xrotation Yrotation Zrotation
									End Site
									{
										OFFSET 0 0 0
									}
								}
							}
						}
						JOINT LeftShoulder_virtual
						{
							OFFSET 0.000000 0.000000 0.000000
							CHANNELS 3 Xrotation Yrotation Zrotation
							JOINT LeftShoulder
							{
								OFFSET 15.263000 10.923401 -0.547700
								CHANNELS 3 Xrotation Yrotation Zrotation
								JOINT LeftArm
								{
									OFFSET 25.438599 -2.830597 -13.032500
									CHANNELS 3 Xrotation Yrotation Zrotation
									JOINT LeftForeArm
									{
										OFFSET 29.960503 0.000000 0.000000
										CHANNELS 3 Xrotation Yrotation Zrotation
										JOINT LeftHand
										{
											OFFSET 27.849251 0.000000 0.000000
											CHANNELS 3 Xrotation Yrotation Zrotation
											End Site
											{
												OFFSET 0 0 0
											}
										}
									}
								}
							}
						}
						JOINT RightShoulder_virtual
						{
							OFFSET 0.000000 0.000000 0.000000
							CHANNELS 3 Xrotation Yrotation Zrotation
							JOINT RightShoulder
							{
								OFFSET -15.263000 10.923401 -0.547700
								CHANNELS 3 Xrotation Yrotation Zrotation
								JOINT RightArm
								{
									OFFSET -25.438599 -2.830597 -13.032500
									CHANNELS 3 Xrotation Yrotation Zrotation
									JOINT RightForeArm
									{
										OFFSET -29.960503 0.000000 0.000000
										CHANNELS 3 Xrotation Yrotation Zrotation
										JOINT RightHand
										{
											OFFSET -27.849251 0.000000 0.000000
											CHANNELS 3 Xrotation Yrotation Zrotation
											End Site
											{
												OFFSET 0 0 0
											}
										}
									}
								}
							}
						}
					}
				}
			}
		}
	}
}
MOTION
Frames: 14
Frame Time: 0.03333333
0.049034 95.261009 4.396927 0.000000 0.000000 0.000000 -3.753863 -5.231598 -3.174703 -14.964680 13.503363 12.520497 20.413689 1.789435 4.640092 -2.578164 1.107092 -9.506670 0.000000 0.000000 0.000000 -3.753863 -5.231598 -3.174703 4.367354 -10.114953 2.838655 4.869810 -9.673559 -3.267167 -4.784396 -1.880458 4.146743 0.000000 0.000000 0.000000 -3.753863 -5.231598 -3.174703 0.000000 0.000000 0.000000 3.311634 1.529444 2.151187 1.151563 0.341256 1.563088 0.000000 0.000000 0.000000 1.124399 0.369601 1.558066 2.249490 -0.040871 0.188048 0.000000 0.000000 0.000000 1.124399 0.369601 1.558066 1.046818 -17.441242 -12.316047 3.916270 -19.989267 -69.765232 0.000002 -1.459375 -0.000008 0.000000 0.000000 0.000000 1.124399 0.369601 1.558066 1.209147 15.345166 14.705933 13.158857 27.555124 58.785177 -0.000002 6.693741 0.000011 0.000000 0.000000 0.000000 
0.037637 95.258972 4.375753 0.000000 0.000000 0.000000 -3.798566 -5.529568 -3.242842 -14.929988 13.519528 12.646491 20.589631 2.040724 4.584399 -2.733012 1.114462 -9.522785 0.000000 0.000000 0.000000 -3.798566 -5.529568 -3.242842 4.295996 -10.116477 2.935991 4.899204 -8.974990 -3.360919 -4.689323 -2.282661 4.094489 0.000000 0.000000 0.000000 -3.798566 -5.529568 -3.242842 0.000000 0.000000 0.000000 3.311627 1.530025 2.151424 1.151564 0.341254 1.563088 0.000000 0.000000 0.000000 1.124399 0.369602 1.558065 2.262220 -0.040101 0.179541 0.000000 0.000000 0.000000 1.124399 0.369602 1.558065 1.049203 -17.430819 -12.315336 3.861913 -20.202544 -69.781324 -0.000002 -1.523109 0.000011 0.000000 0.000000 0.000000 1.124399 0.369602 1.558065 1.206564 15.367494 14.694092 13.125058 27.554843 58.770759 0.000002 6.622046 -0.000017 0.000000 0.000000 0.000000 
0.022266 95.251900 4.361187 0.000000 0.000000 0.000000 -3.848757 -5.848387 -3.312335 -14.889406 13.540136 12.784360 20.791367 2.304529 4.525201 -2.911674 1.123877 -9.555901 0.000000 0.000000 0.000000 -3.848757 -5.848387 -3.312335 4.188343 -10.110850 3.022884 5.013538 -8.272048 -3.446594 -4.636673 -2.677707 4.044093 0.000000 0.000000 0.000000 -3.848757 -5.848387 -3.312335 0.000000 0.000000 0.000000 3.311638 1.530738 2.151075 1.151563 0.341255 1.563088 0.000000 0.000000 0.000000 1.124398 0.369603 1.558064 2.276397 -0.037869 0.172480 0.000000 0.000000 0.000000 1.124398 0.369603 1.558064 1.050918 -17.423336 -12.314824 3.808591 -20.203677 -69.807928 -0.000009 -1.531671 -0.000011 0.000000 0.000000 0.000000 1.124398 0.369603 1.558064 1.199732 15.377517 14.710617 13.152622 27.622917 58.680512 -0.000007 6.503554 0.000008 0.000000 0.000000 0.000000 
0.003778 95.241539 4.352856 0.000000 0.000000 0.000000 -3.903826 -6.186066 -3.385531 -14.844498 13.566475 12.933082 21.017213 2.580620 4.464653 -3.112897 1.132808 -9.599333 0.000000 0.000000 0.000000 -3.903826 -6.186066 -3.385531 4.064352 -10.102045 3.105322 5.173350 -7.551399 -3.525488 -4.606683 -3.073716 3.991705 0.000000 0.000000 0.000000 -3.903826 -6.186066 -3.385531 0.000000 0.000000 0.000000 3.311644 1.531501 2.155748 1.151564 0.344953 1.563089 0.000000 0.000000 0.000000 1.124399 0.369601 1.564418 2.291053 -0.034876 0.167269 0.000000 0.000000 0.000000 1.124399 0.369601 1.564418 1.053011 -17.414187 -12.314195 3.768652 -20.016607 -69.831595 -0.000011 -1.492135 -0.000001 0.000000 0.000000 0.000000 1.124399 0.369601 1.564418 1.187784 15.381769 14.752394 13.268588 27.793928 58.482894 -0.000001 6.357400 -0.000002 0.000000 0.000000 0.000000 
-0.015788 95.229874 4.349495 0.000000 0.000000 0.000000 -3.964290 -6.537602 -3.457645 -14.786316 13.597296 13.079554 21.250238 2.869424 4.403132 -3.326535 1.142202 -9.643904 0.000000 0.000000 0.000000 -3.964290 -6.537602 -3.457645 3.929690 -10.092945 3.180372 5.367744 -6.821935 -3.603704 -4.594113 -3.471288 3.941996 0.000000 0.000000 0.000000 -3.964290 -6.537602 -3.457645 0.000000 0.000000 0.000000 3.311649 1.535832 2.161670 1.151563 0.348857 1.567591 0.000000 0.000000 0.000000 1.124399 0.374511 1.572563 2.305513 -0.033831 0.163064 0.000000 0.000000 0.000000 1.124399 0.374511 1.572563 1.057807 -17.393218 -12.312760 3.758142 -19.732135 -69.832114 -0.000005 -1.420466 0.000008 0.000000 0.000000 0.000000 1.124399 0.374511 1.572563 1.178337 15.402406 14.787807 13.468003 28.056745 58.208880 -0.000005 6.243471 0.000001 0.000000 0.000000 0.000000 
-0.033947 95.218124 4.349678 0.000000 0.000000 0.000000 -4.028683 -6.898762 -3.520501 -14.702440 13.630829 13.208979 21.465065 3.173526 4.338828 -3.538276 1.150640 -9.686729 0.000000 0.000000 0.000000 -4.028683 -6.898762 -3.520501 3.773394 -10.087691 3.236353 5.612932 -6.086896 -3.681565 -4.606555 -3.870476 3.897958 0.000000 0.000000 0.000000 -4.028683 -6.898762 -3.520501 0.000000 0.000000 0.000000 3.311648 1.542292 2.169559 1.151563 0.356537 1.578239 0.000000 0.000000 0.000000 1.124399 0.381294 1.583577 2.319181 -0.033673 0.159284 0.000000 0.000000 0.000000 1.124399 0.381294 1.583577 1.058660 -17.352201 -12.300419 3.778534 -19.441715 -69.801501 0.000008 -1.327808 -0.000008 0.000000 0.000000 0.000000 1.124399 0.381294 1.583577 1.180833 15.472178 14.771835 13.716028 28.359717 57.924997 -0.000001 6.249306 -0.000014 0.000000 0.000000 0.000000 
-0.049700 95.205528 4.351738 0.000000 0.000000 0.000000 -4.094298 -7.272891 -3.567151 -14.588359 13.664229 13.323050 21.643918 3.493743 4.268135 -3.723189 1.161043 -9.750863 0.000000 0.000000 0.000000 -4.094298 -7.272891 -3.567151 3.567074 -10.079799 3.262625 5.951676 -5.356835 -3.754299 -4.664113 -4.261718 3.855815 0.000000 0.000000 0.000000 -4.094298 -7.272891 -3.567151 0.000000 0.000000 0.000000 3.311634 1.550685 2.178060 1.151563 0.369530 1.590825 0.000000 0.000000 0.000000 1.124399 0.393026 1.596637 2.331433 -0.034222 0.156300 0.000000 0.000000 0.000000 1.124399 0.393026 1.596637 1.060254 -17.297901 -12.280449 3.805021 -19.147097 -69.757842 -0.000003 -1.211524 0.000016 0.000000 0.000000 0.000000 1.124399 0.393026 1.596637 1.194994 15.607839 14.686011 13.976972 28.670853 57.646100 -0.000010 6.450805 -0.000005 0.000000 0.000000 0.000000 
-0.065279 95.187317 4.352758 0.000000 0.000000 0.000000 -4.162188 -7.666585 -3.600916 -14.456290 13.696159 13.424787 21.818409 3.833713 4.192649 -3.907004 1.176404 -9.836693 0.000000 0.000000 0.000000 -4.162188 -7.666585 -3.600916 3.276867 -10.065112 3.252677 6.440981 -4.627685 -3.818600 -4.789513 -4.641126 3.815038 0.000000 0.000000 0.000000 -4.162188 -7.666585 -3.600916 0.000000 0.000000 0.000000 3.311701 1.561545 2.184345 1.151564 0.384366 1.605656 0.000000 0.000000 0.000000 1.124399 0.407741 1.611574 2.344300 -0.035290 0.154044 0.000000 0.000000 0.000000 1.124399 0.407741 1.611574 1.063181 -17.245406 -12.250371 3.804467 -18.782575 -69.731471 -0.000008 -1.067817 0.000002 0.000000 0.000000 0.000000 1.124399 0.407741 1.611574 1.215970 15.788179 14.561687 14.203570 28.978099 57.321803 -0.000014 6.893218 0.000022 0.000000 0.000000 0.000000 
-0.080944 95.173607 4.353502 0.000000 0.000000 0.000000 -4.238999 -8.074487 -3.634447 -14.284313 13.733980 13.519187 21.957252 4.183509 4.114701 -4.087255 1.194770 -9.942647 0.000000 0.000000 0.000000 -4.238999 -8.074487 -3.634447 3.009880 -10.057427 3.235508 6.890414 -3.858623 -3.877045 -4.888316 -5.025281 3.766085 0.000000 0.000000 0.000000 -4.238999 -8.074487 -3.634447 0.000000 -0.000001 0.000000 3.311748 1.568819 2.194420 1.151563 0.396339 1.624562 0.000000 0.000000 0.000000 1.124400 0.417804 1.631163 2.365814 -0.037573 0.149903 0.000000 0.000000 0.000000 1.124400 0.417804 1.631163 1.067789 -17.209102 -12.209658 3.771158 -18.311841 -69.739073 -0.000012 -0.906990 -0.000012 0.000000 0.000000 0.000000 1.124400 0.417804 1.631163 1.234880 15.961064 14.452066 14.265889 29.191061 56.957296 -0.000001 7.616439 0.000006 0.000000 0.000000 0.000000 
-0.099062 95.157883 4.355536 0.000000 0.000000 0.000000 -4.330232 -8.483541 -3.668090 -14.088419 13.779797 13.622940 22.083899 4.515454 4.039368 -4.263045 1.215427 -10.090670 0.000000 0.000000 0.000000 -4.330232 -8.483541 -3.668090 2.740478 -10.050072 3.215807 7.377638 -3.092770 -3.932777 -5.009033 -5.407027 3.709349 0.000000 0.000000 0.000000 -4.330232 -8.483541 -3.668090 0.000000 0.000000 0.000000 3.306399 1.572353 2.211891 1.139893 0.399032 1.650152 0.000000 0.000000 0.000000 1.112629 0.422713 1.656054 2.409730 -0.039844 0.138775 0.000000 0.000000 0.000000 1.112629 0.422713 1.656054 1.074911 -17.196178 -12.153146 3.738119 -17.776787 -69.777868 -0.000004 -0.754017 -0.000001 0.000000 0.000000 0.000000 1.112629 0.422713 1.656054 1.247188 16.082765 14.381708 13.939141 29.104918 56.693613 0.000005 8.700788 0.000003 0.000000 0.000000 0.000000 
-0.122339 95.151947 4.361124 0.000000 0.000000 0.000000 -4.436377 -8.890101 -3.702929 -13.828599 13.839550 13.734077 22.130296 4.828089 3.958414 -4.408685 1.237934 -10.289184 0.000000 0.000000 0.000000 -4.436377 -8.890101 -3.702929 2.557029 -10.050821 3.208338 7.742174 -2.327535 -3.990348 -5.076701 -5.788193 3.646764 0.000000 0.000000 0.000000 -4.436377 -8.890101 -3.702929 0.000000 0.000000 0.000000 3.284691 1.574373 2.238496 1.107760 0.398067 1.681915 0.000000 0.000000 0.000000 1.080384 0.421403 1.688024 2.489339 -0.044161 0.118088 0.000000 0.000000 0.000000 1.080384 0.421403 1.688024 1.086083 -17.206778 -12.069301 3.746673 -17.251234 -69.839395 0.000005 -0.634576 -0.000005 0.000000 0.000000 0.000000 1.080384 0.421403 1.688024 1.253445 16.142715 14.334156 13.068706 28.583995 56.655371 -0.000001 10.264119 0.000015 0.000000 0.000000 0.000000 
-0.152187 95.153809 4.369310 0.000000 0.000000 0.000000 -4.556721 -9.300468 -3.729628 -13.494014 13.908855 13.835120 22.091157 5.148046 3.869814 -4.530592 1.261897 -10.521337 0.000000 0.000000 0.000000 -4.556721 -9.300468 -3.729628 2.419075 -10.058092 3.199535 8.056034 -1.561652 -4.053499 -5.125952 -6.167933 3.581600 0.000000 0.000000 0.000000 -4.556721 -9.300468 -3.729628 0.000000 0.000001 0.000000 3.247904 1.576194 2.270154 1.054514 0.396029 1.717641 0.000000 0.000000 0.000000 1.027003 0.418942 1.723680 2.610550 -0.053600 0.090068 0.000000 0.000000 0.000000 1.027003 0.418942 1.723680 1.101522 -17.234782 -11.955882 3.807086 -16.775942 -69.913475 -0.000012 -0.559501 0.000018 0.000000 0.000000 0.000000 1.027003 0.418942 1.723680 1.260417 16.157070 14.282149 11.738783 27.774659 56.753691 -0.000002 12.362241 0.000012 0.000000 0.000000 0.000000 
-0.187511 95.159042 4.376884 0.000000 0.000000 0.000000 -4.692407 -9.713540 -3.741165 -13.095241 13.980175 13.907573 21.988267 5.491608 3.779549 -4.636207 1.286213 -10.764499 0.000000 0.000000 0.000000 -4.692407 -9.713540 -3.741165 2.275767 -10.072241 3.172647 8.412245 -0.793834 -4.119276 -5.200103 -6.545792 3.512207 0.000000 0.000000 0.000000 -4.692407 -9.713540 -3.741165 0.000000 0.000001 0.000000 3.200257 1.579196 2.302353 0.987020 0.395493 1.754963 0.000000 0.000000 0.000000 0.959411 0.415326 1.761049 2.770759 -0.071145 0.056498 0.000000 0.000000 0.000000 0.959411 0.415326 1.761049 1.117710 -17.266452 -11.838005 3.889538 -16.355564 -69.977644 0.000003 -0.519790 0.000001 0.000000 0.000000 0.000000 0.959411 0.415326 1.761049 1.275746 16.160369 14.207259 10.168876 27.023676 56.766631 -0.000010 14.878937 -0.000015 0.000000 0.000000 0.000000 
-0.227105 95.162476 4.379581 0.000000 0.000000 0.000000 -4.840619 -10.107165 -3.733547 -12.702052 14.055496 13.955199 21.906358 5.828346 3.688472 -4.739096 1.304480 -10.980637 0.000000 0.000000 0.000000 -4.840619 -10.107165 -3.733547 2.094457 -10.094544 3.120284 8.872762 -0.043591 -4.184700 -5.332135 -6.923346 3.436301 0.000000 0.000000 0.000000 -4.840619 -10.107165 -3.733547 0.000000 0.000000 0.000000 3.147452 1.584658 2.335175 0.914397 0.400014 1.796057 0.000000 0.000000 0.000000 0.886702 0.421377 1.801511 2.961481 -0.098827 0.012989 0.000000 0.000000 0.000000 0.886702 0.421377 1.801511 1.128757 -17.280865 -11.756503 3.942999 -15.998941 -70.004480 -0.000002 -0.494767 0.000015 0.000000 0.000000 0.000000 0.886702 0.421377 1.801511 1.301754 16.209014 14.088946 8.500879 26.572375 56.565636 -0.000008 17.635023 -0.000001 0.000000 0.000000 0.000000 
